<svg width="153.450048828125px" height="121.40498046875px" xmlns="http://www.w3.org/2000/svg" viewBox="173.2749755859375 14.297509765625001 153.450048828125 121.40498046875" style="background: rgba(0, 0, 0, 0);" preserveAspectRatio="xMidYMid"><defs><filter id="editing-raise" x="-100%" y="-100%" width="300%" height="300%"><feFlood flood-color="#ccc" result="flood-surface"></feFlood><feFlood flood-color="#777" result="flood-extrude"></feFlood><feMorphology operator="erode" in="SourceAlpha" radius="1" result="erode"></feMorphology><feConvolveMatrix in="erode" result="shadow" order="11,8" divisor="1" kernelMatrix="0 0 0 1 1 1 1 1 0 0 0 0 0 1 0 0 0 0 0 1 0 0 0 0 1 0 0 0 0 0 1 0 0 0 0 1 0 0 0 0 0 1 0 0 0 0 1 0 0 0 0 0 1 0 0 0 0 0 1 0 0 0 1 0 0 0 0 0 0 1 1 0 1 1 0 0 0 0 0 0 0 0 1 0 0 0 0 0"></feConvolveMatrix><feOffset dx="0" dy="4" in="shadow" result="offset"></feOffset><feGaussianBlur in="offset" stdDeviation="0.2" result="blur"></feGaussianBlur><feComposite operator="in" in="flood-extrude" in2="blur" result="extrude"></feComposite><feMorphology operator="erode" in="SourceAlpha" radius="1" result="erode2"></feMorphology><feConvolveMatrix in="erode2" result="out" order="4,4" divisor="1" kernelMatrix="0 1 1 0 1 0 0 1 1 0 0 1 0 1 1 0 "></feConvolveMatrix><feComposite operator="in" in="flood-surface" in2="out" result="text"></feComposite><feMerge><feMergeNode in="extrude"></feMergeNode><feMergeNode in="text"></feMergeNode></feMerge></filter></defs><g filter="url(#editing-raise)"><g transform="translate(199.85499954223633, 102.84000015258789)"><path d="M7.17 0L10.88-18.82L10.88-18.82Q9.02-36.16 2.50-39.87L2.50-39.87L2.50-39.87Q3.84-41.54 6.02-42.46L6.02-42.46L6.02-42.46Q8.19-43.39 10.82-43.39L10.82-43.39L10.82-43.39Q13.44-43.39 15.42-42.46L15.42-42.46L15.42-42.46Q17.41-41.54 18.69-39.55L18.69-39.55L18.69-39.55Q21.12-35.78 21.12-26.75L21.12-26.75L21.12-22.14L21.12-22.14Q24.96-33.41 28.80-38.27L28.80-38.27L28.80-38.27Q32.70-43.26 37.57-43.26L37.57-43.26L37.57-43.26Q39.49-43.26 40.77-42.27L40.77-42.27L40.77-42.27Q42.05-41.28 42.69-39.81L42.69-39.81L42.69-39.81Q37.76-37.63 33.02-31.36L33.02-31.36L33.02-31.36Q28.29-25.09 25.22-16.32L25.22-16.32L21.44 0L7.17 0ZM63.62-29.57L63.62-29.57L63.62-29.57Q64.58-31.49 64.58-33.28L64.58-33.28L64.58-33.28Q64.58-35.07 64.38-36.06L64.38-36.06L64.38-36.06Q64.19-37.06 63.74-37.82L63.74-37.82L63.74-37.82Q62.78-39.49 60.86-39.49L60.86-39.49L60.86-39.49Q58.50-39.49 56.58-37.76L56.58-37.76L56.58-37.76Q54.53-35.97 54.53-33.15L54.53-33.15L54.53-33.15Q54.53-31.36 55.78-29.98L55.78-29.98L55.78-29.98Q57.02-28.61 58.94-27.33L58.94-27.33L58.94-27.33Q60.86-26.05 63.04-24.77L63.04-24.77L63.04-24.77Q65.22-23.49 67.14-21.95L67.14-21.95L67.14-21.95Q71.55-18.43 71.55-13.70L71.55-13.70L71.55-13.70Q71.55-10.50 69.86-7.78L69.86-7.78L69.86-7.78Q68.16-5.06 65.34-3.07L65.34-3.07L65.34-3.07Q59.20 1.28 51.07 1.28L51.07 1.28L51.07 1.28Q44.48 1.28 41.09-0.86L41.09-0.86L41.09-0.86Q37.70-3.01 37.70-6.27L37.70-6.27L37.70-6.27Q37.70-12.10 42.24-13.57L42.24-13.57L42.24-13.57Q43.52-14.02 45.47-14.02L45.47-14.02L45.47-14.02Q47.42-14.02 49.66-13.18L49.66-13.18L49.66-13.18Q48.64-10.56 48.64-8.19L48.64-8.19L48.64-8.19Q48.64-3.07 52.29-3.07L52.29-3.07L52.29-3.07Q54.66-3.07 56.61-4.80L56.61-4.80L56.61-4.80Q58.56-6.53 58.56-8.48L58.56-8.48L58.56-8.48Q58.56-10.43 57.31-11.84L57.31-11.84L57.31-11.84Q56.06-13.25 54.21-14.37L54.21-14.37L54.21-14.37Q52.35-15.49 50.21-16.58L50.21-16.58L50.21-16.58Q48.06-17.66 46.21-19.20L46.21-19.20L46.21-19.20Q41.86-22.72 41.86-28.35L41.86-28.35L41.86-28.35Q41.86-32 43.65-34.85L43.65-34.85L43.65-34.85Q45.44-37.70 48.32-39.62L48.32-39.62L48.32-39.62Q54.08-43.52 61.15-43.52L61.15-43.52L61.15-43.52Q68.22-43.52 71.65-41.41L71.65-41.41L71.65-41.41Q75.07-39.30 75.07-35.71L75.07-35.71L75.07-35.71Q75.07-32.58 72.64-30.59L72.64-30.59L72.64-30.59Q70.53-28.93 67.97-28.93L67.97-28.93L67.97-28.93Q65.41-28.93 63.62-29.57ZM68.35 8.83L68.35 8.83L68.35 8.83Q71.62 8.45 73.66 4.22L73.66 4.22L73.66 4.22Q75.78-0.06 77.70-9.92L77.70-9.92L83.90-42.24L97.79-42.24L91.58-9.92L91.58-9.92Q89.22 2.62 85.31 7.55L85.31 7.55L85.31 7.55Q83.26 10.11 80.67 11.14L80.67 11.14L80.67 11.14Q78.08 12.16 75.26 12.16L75.26 12.16L75.26 12.16Q72.45 12.16 70.62 11.14L70.62 11.14L70.62 11.14Q68.80 10.11 68.35 8.83Z"></path></g></g><style>text {
  font-size: 64px;
  font-family: Arial Black;
  dominant-baseline: central;
  text-anchor: middle;
}</style></svg>